<svg xmlns="http://www.w3.org/2000/svg" viewBox="0 0 800 500">
  <defs>
    <linearGradient id="bg2" x1="0%" y1="0%" x2="100%" y2="100%">
      <stop offset="0%" style="stop-color:#0f1420"/>
      <stop offset="100%" style="stop-color:#1a1f35"/>
    </linearGradient>
    <linearGradient id="purple2" x1="0%" y1="0%" x2="100%" y2="100%">
      <stop offset="0%" style="stop-color:#a855f7"/>
      <stop offset="100%" style="stop-color:#7c3aed"/>
    </linearGradient>
  </defs>
  
  <!-- Background -->
  <rect width="800" height="500" fill="url(#bg2)"/>
  
  <!-- Grid -->
  <g opacity="0.05" stroke="#a855f7" stroke-width="1">
    <line x1="0" y1="100" x2="800" y2="100"/>
    <line x1="0" y1="200" x2="800" y2="200"/>
    <line x1="0" y1="300" x2="800" y2="300"/>
    <line x1="0" y1="400" x2="800" y2="400"/>
  </g>
  
  <!-- Chat Interface Frame -->
  <rect x="50" y="80" width="350" height="380" rx="16" fill="#1a1f35" stroke="#2d3555" stroke-width="2"/>
  
  <!-- Chat Header -->
  <rect x="50" y="80" width="350" height="50" rx="16" fill="#252b45"/>
  <rect x="50" y="110" width="350" height="20" fill="#252b45"/>
  <circle cx="85" cy="105" r="15" fill="#a855f7"/>
  <text x="85" y="110" text-anchor="middle" fill="white" font-size="14">🤖</text>
  <text x="115" y="100" fill="#e2e8f0" font-size="13" font-weight="bold" font-family="Arial">AI Support Bot</text>
  <circle cx="115" cy="115" r="4" fill="#10b981"/>
  <text x="130" y="118" fill="#10b981" font-size="10" font-family="Arial">Online</text>
  
  <!-- Chat Messages -->
  <!-- User Message -->
  <rect x="180" y="150" width="200" height="45" rx="12" fill="#a855f7"/>
  <text x="195" y="175" fill="white" font-size="11" font-family="Arial">How do I reset my password?</text>
  
  <!-- Bot Response -->
  <rect x="70" y="210" width="250" height="70" rx="12" fill="#252b45"/>
  <text x="85" y="235" fill="#e2e8f0" font-size="11" font-family="Arial">I can help with that! Here's how:</text>
  <text x="85" y="255" fill="#94a3b8" font-size="10" font-family="Arial">1. Go to Settings → Security</text>
  <text x="85" y="270" fill="#94a3b8" font-size="10" font-family="Arial">2. Click "Change Password"</text>
  
  <!-- User Message 2 -->
  <rect x="200" y="295" width="180" height="35" rx="12" fill="#a855f7"/>
  <text x="215" y="317" fill="white" font-size="11" font-family="Arial">Thanks! That worked!</text>
  
  <!-- Bot Response 2 -->
  <rect x="70" y="345" width="200" height="45" rx="12" fill="#252b45"/>
  <text x="85" y="370" fill="#e2e8f0" font-size="11" font-family="Arial">Great! Anything else I can</text>
  <text x="85" y="385" fill="#e2e8f0" font-size="11" font-family="Arial">help you with today? 😊</text>
  
  <!-- Typing Input -->
  <rect x="60" y="410" width="330" height="40" rx="20" fill="#1e2540" stroke="#3d4565" stroke-width="1"/>
  <text x="80" y="435" fill="#64748b" font-size="12" font-family="Arial">Type your message...</text>
  <circle cx="370" cy="430" r="15" fill="url(#purple2)"/>
  <text x="370" y="435" text-anchor="middle" fill="white" font-size="12">→</text>
  
  <!-- RAG System Diagram -->
  <g transform="translate(450, 100)">
    <!-- Knowledge Base -->
    <rect x="0" y="0" width="140" height="80" rx="10" fill="#1e2540" stroke="#06b6d4" stroke-width="2"/>
    <text x="70" y="30" text-anchor="middle" fill="#06b6d4" font-size="12" font-weight="bold" font-family="Arial">📚 Knowledge</text>
    <text x="70" y="50" text-anchor="middle" fill="#06b6d4" font-size="12" font-weight="bold" font-family="Arial">Base</text>
    <text x="70" y="70" text-anchor="middle" fill="#94a3b8" font-size="9" font-family="Arial">Pinecone Vector DB</text>
    
    <!-- Arrow -->
    <path d="M70 90 L70 130" stroke="#06b6d4" stroke-width="2" stroke-dasharray="4,4"/>
    <polygon points="65,130 70,140 75,130" fill="#06b6d4"/>
    
    <!-- RAG Engine -->
    <rect x="0" y="150" width="140" height="80" rx="10" fill="#1e2540" stroke="#a855f7" stroke-width="2"/>
    <text x="70" y="180" text-anchor="middle" fill="#a855f7" font-size="12" font-weight="bold" font-family="Arial">🧠 RAG Engine</text>
    <text x="70" y="200" text-anchor="middle" fill="#94a3b8" font-size="9" font-family="Arial">Groq + Context</text>
    <text x="70" y="215" text-anchor="middle" fill="#94a3b8" font-size="9" font-family="Arial">Retrieval</text>
    
    <!-- Arrow -->
    <path d="M70 240 L70 280" stroke="#a855f7" stroke-width="2" stroke-dasharray="4,4"/>
    <polygon points="65,280 70,290 75,280" fill="#a855f7"/>
    
    <!-- Response -->
    <rect x="0" y="300" width="140" height="60" rx="10" fill="#1e2540" stroke="#10b981" stroke-width="2"/>
    <text x="70" y="325" text-anchor="middle" fill="#10b981" font-size="12" font-weight="bold" font-family="Arial">✓ Accurate</text>
    <text x="70" y="345" text-anchor="middle" fill="#10b981" font-size="12" font-weight="bold" font-family="Arial">Response</text>
  </g>
  
  <!-- Connection Lines -->
  <path d="M400 250 L450 190" stroke="#a855f7" stroke-width="2" opacity="0.5" stroke-dasharray="5,5"/>
  
  <!-- Stats Card -->
  <rect x="600" y="150" width="160" height="200" rx="12" fill="#1e2540" stroke="#a855f7" stroke-width="1"/>
  <text x="680" y="180" text-anchor="middle" fill="#e2e8f0" font-size="11" font-weight="bold" font-family="Arial">Performance</text>
  
  <text x="620" y="215" fill="#a855f7" font-size="24" font-weight="bold" font-family="Arial">65%</text>
  <text x="620" y="235" fill="#94a3b8" font-size="9" font-family="Arial">Tickets Automated</text>
  
  <text x="620" y="270" fill="#06b6d4" font-size="24" font-weight="bold" font-family="Arial">&lt;2m</text>
  <text x="620" y="290" fill="#94a3b8" font-size="9" font-family="Arial">Avg Response</text>
  
  <text x="620" y="325" fill="#10b981" font-size="24" font-weight="bold" font-family="Arial">+35%</text>
  <text x="620" y="345" fill="#94a3b8" font-size="9" font-family="Arial">CSAT Improvement</text>
  
  <!-- Title -->
  <rect x="450" y="30" width="300" height="40" rx="8" fill="url(#purple2)" opacity="0.9"/>
  <text x="600" y="55" text-anchor="middle" fill="white" font-size="14" font-weight="bold" font-family="Arial">Intelligent Support Bot</text>
</svg>
